<svg width="512" height="512" viewBox="0 0 512 512" xmlns="http://www.w3.org/2000/svg" role="img" aria-labelledby="title desc">
  <title id="title">Beacon Search Neon Lighthouse</title>
  <desc id="desc">Neon cyan line-art lighthouse on a dark blue background.</desc>
  <defs>
    <radialGradient id="bg" cx="50%" cy="30%" r="80%">
      <stop offset="0%" stop-color="#123c50"/>
      <stop offset="55%" stop-color="#0b2535"/>
      <stop offset="100%" stop-color="#071827"/>
    </radialGradient>
  </defs>

  <rect width="512" height="512" rx="96" fill="url(#bg)"/>

  <g stroke="#65f7ff" stroke-width="10" stroke-linecap="square" stroke-linejoin="miter" fill="none">
    <path d="M205 116L256 72L307 116"/>
    <path d="M197 126H315"/>
    <path d="M208 140V188"/>
    <path d="M304 140V188"/>

    <rect x="224" y="146" width="64" height="52"/>
    <path d="M224 146L288 198"/>
    <path d="M288 146L224 198"/>

    <path d="M192 214H320V244L308 258H204L192 244Z"/>

    <path d="M210 258L194 424"/>
    <path d="M238 258L226 424"/>
    <path d="M302 258L318 424"/>
    <path d="M274 258L286 424"/>

    <path d="M174 424L338 310V452H174Z"/>
    <path d="M174 366L338 252"/>

    <path d="M164 452H350"/>
  </g>
</svg>
